<svg xmlns="http://www.w3.org/2000/svg" xmlns:xlink="http://www.w3.org/1999/xlink" preserveAspectRatio="xMidYMid" width="11" height="20" viewBox="0 0 11 20">
  <defs>
    <style>
      .cls-1 {
        fill: #8cffda;
        fill-rule: evenodd;
      }
    </style>
  </defs>
  <path d="M6.050,0.002 C6.192,1.003 6.212,2.264 7.259,3.525 C8.065,4.485 8.972,5.346 9.597,6.126 C10.423,7.147 11.007,8.428 11.007,9.729 C11.007,11.811 10.000,13.872 9.314,15.013 L8.992,15.013 C9.476,13.933 10.443,12.151 10.362,10.250 C10.322,9.189 9.919,8.048 9.234,7.208 C8.468,6.227 7.179,5.446 6.050,5.366 L6.050,16.715 C6.050,17.615 5.507,18.436 4.721,19.036 C3.955,19.637 2.947,19.997 2.061,19.997 C1.497,19.997 0.973,19.817 0.610,19.517 C0.227,19.217 0.006,18.776 0.006,18.256 C0.006,17.435 0.570,16.614 1.336,16.014 C2.101,15.394 3.068,14.993 3.874,14.993 C4.580,14.993 5.184,15.094 5.547,15.434 L5.547,0.002 L6.050,0.002 Z" class="cls-1"/>
</svg>
