<svg xmlns="http://www.w3.org/2000/svg" xmlns:xlink="http://www.w3.org/1999/xlink" preserveAspectRatio="xMidYMid" width="25" height="25" viewBox="0 0 25 25">
  <defs>
    <style>
      .cls-1, .cls-2 {
        fill: #8cffda;
      }

      .cls-1 {
        fill-rule: evenodd;
      }
    </style>
  </defs>
  <path d="M12.500,25.000 C5.596,25.000 -0.000,19.404 -0.000,12.500 C-0.000,5.596 5.596,-0.000 12.500,-0.000 C19.404,-0.000 25.000,5.596 25.000,12.500 C25.000,19.404 19.404,25.000 12.500,25.000 ZM12.500,1.000 C6.149,1.000 1.000,6.149 1.000,12.500 C1.000,18.851 6.149,24.000 12.500,24.000 C18.851,24.000 24.000,18.851 24.000,12.500 C24.000,6.149 18.851,1.000 12.500,1.000 Z" class="cls-1"/>
  <rect x="9" y="7" width="2" height="11" class="cls-2"/>
  <rect x="14" y="7" width="2" height="11" class="cls-2"/>
</svg>
